<svg version="1.2" xmlns="http://www.w3.org/2000/svg" viewBox="0 0 2500 2500" width="2500" height="2500">
	<title>BundleAlertLogo</title>
	<defs>
		<linearGradient id="g1" x2="1" gradientUnits="userSpaceOnUse" gradientTransform="matrix(420.167,1220.254,-1326.73,456.83,1528.996,231)">
			<stop offset="0" stop-color="#000000" stop-opacity="1"/>
			<stop offset="1" stop-color="#000000" stop-opacity="0"/>
		</linearGradient>
		<linearGradient id="g2" x2="1" gradientUnits="userSpaceOnUse" gradientTransform="matrix(1245.499,21.74,-29.355,1681.762,432.918,1184.411)">
			<stop offset="0" stop-color="#000000" stop-opacity="1"/>
			<stop offset="1" stop-color="#000000" stop-opacity="0"/>
		</linearGradient>
		<linearGradient id="g3" x2="1" gradientUnits="userSpaceOnUse" gradientTransform="matrix(479.376,-797.815,1077.272,647.29,742.082,1835.886)">
			<stop offset="0" stop-color="#000000" stop-opacity="1"/>
			<stop offset="1" stop-color="#000000" stop-opacity="0"/>
		</linearGradient>
		<linearGradient id="g4" x2="1" gradientUnits="userSpaceOnUse" gradientTransform="matrix(-676.41,-1220.276,1647.656,-913.311,1364.152,2270)">
			<stop offset="0" stop-color="#000000" stop-opacity="1"/>
			<stop offset="1" stop-color="#000000" stop-opacity="0"/>
		</linearGradient>
		<linearGradient id="g5" x2="1" gradientUnits="userSpaceOnUse" gradientTransform="matrix(-624.817,744.628,-826.808,-693.775,1830.638,710.653)">
			<stop offset="0" stop-color="#000000" stop-opacity="1"/>
			<stop offset="1" stop-color="#000000" stop-opacity="0"/>
		</linearGradient>
		<linearGradient id="g6" x2="1" gradientUnits="userSpaceOnUse" gradientTransform="matrix(-1033.499,0,0,-1427.697,2120.082,1304.719)">
			<stop offset="0" stop-color="#000000" stop-opacity="1"/>
			<stop offset="1" stop-color="#000000" stop-opacity="0"/>
		</linearGradient>
	</defs>
	<style>
		.s0 { fill: url(#g1) } 
		.s1 { fill: url(#g2) } 
		.s2 { fill: url(#g3) } 
		.s3 { fill: url(#g4) } 
		.s4 { fill: url(#g5) } 
		.s5 { fill: url(#g6) } 
	</style>
	<g id="&lt;Group&gt;">
		<path id="&lt;Path&gt;" class="s0" d="m1518.2 385.9l-268.2 154.8-346.9 200.3v710.3l-268.2-154.9v-710.2l268.2-154.9 346.9-200.3z"/>
		<path id="&lt;Path&gt;" class="s1" d="m1250 1650.5l-268.2 154.9-346.9-200.3-268.2-154.8v-710.3l268.2-154.8v710.2l268.2 154.9z"/>
		<path id="&lt;Path&gt;" class="s2" d="m1596.9 1450.3v309.7l-346.9 200.3-268.2 154.8-268.3-154.8-346.8-200.3v-309.7l268.2 154.8 346.9 200.3 268.2-154.9z"/>
		<path id="&lt;Path&gt;" class="s3" d="m1865.1 1204.6v710.2l-268.2 154.9-346.9 200.3-268.2-154.9 268.2-154.8 346.9-200.3v-710.3z"/>
		<path id="&lt;Path&gt;" class="s4" d="m2133.3 740v309.7l-268.2-154.8-346.9-200.3-268.2 154.9-346.9 200.2v-309.7l346.9-200.3 268.2-154.8 268.3 154.8z"/>
		<path id="&lt;Path&gt;" class="s5" d="m2133.3 1049.7v710.3l-268.2 154.8v-710.2l-268.2-154.9-346.9-200.2 268.2-154.9 346.9 200.3z"/>
	</g>
</svg>